<svg xmlns="http://www.w3.org/2000/svg" xmlns:xlink="http://www.w3.org/1999/xlink" width="500" zoomAndPan="magnify" viewBox="0 0 375 374.999991" height="500" preserveAspectRatio="xMidYMid meet" version="1.0"><defs><g/><clipPath id="f3fcd8baec"><path d="M 84.808594 84.808594 L 290.191406 84.808594 L 290.191406 290.191406 L 84.808594 290.191406 Z M 84.808594 84.808594 " clip-rule="nonzero"/></clipPath><clipPath id="d3f07a220a"><path d="M 187.5 84.808594 C 130.785156 84.808594 84.808594 130.785156 84.808594 187.5 C 84.808594 244.214844 130.785156 290.191406 187.5 290.191406 C 244.214844 290.191406 290.191406 244.214844 290.191406 187.5 C 290.191406 130.785156 244.214844 84.808594 187.5 84.808594 Z M 187.5 84.808594 " clip-rule="nonzero"/></clipPath><clipPath id="ecd64e8bab"><path d="M 127.644531 105.1875 L 247.644531 105.1875 L 247.644531 244 L 127.644531 244 Z M 127.644531 105.1875 " clip-rule="nonzero"/></clipPath></defs><rect x="-37.5" width="450" fill="#ffffff" y="-37.499999" height="449.999989" fill-opacity="1"/><rect x="-37.5" width="450" fill="#ffffff" y="-37.499999" height="449.999989" fill-opacity="1"/><g clip-path="url(#f3fcd8baec)"><g clip-path="url(#d3f07a220a)"><path fill="#919f89" d="M 84.808594 84.808594 L 290.191406 84.808594 L 290.191406 290.191406 L 84.808594 290.191406 Z M 84.808594 84.808594 " fill-opacity="1" fill-rule="nonzero"/></g></g><g clip-path="url(#ecd64e8bab)"><path fill="#ffffff" d="M 244.492188 186.527344 C 244.683594 185.75 245.226562 185.140625 245.722656 184.542969 C 246.511719 183.617188 247.324219 182.601562 247.144531 181.292969 C 246.980469 180.046875 245.992188 179.171875 245.140625 178.332031 C 244.667969 177.875 244.199219 177.40625 243.867188 176.832031 C 243.359375 175.933594 243.386719 174.878906 243.449219 173.875 C 243.550781 172.425781 243.730469 170.785156 242.839844 169.515625 C 242.089844 168.449219 240.757812 168.117188 239.535156 168.5 C 236.257812 169.554688 236.613281 173.582031 237.554688 176.148438 C 238.152344 177.785156 238.8125 179.363281 239.246094 181.0625 C 239.652344 182.714844 239.90625 184.390625 240.007812 186.09375 C 240.109375 187.898438 240.046875 189.714844 239.804688 191.507812 C 239.179688 189.945312 238.839844 188.230469 238.621094 186.691406 C 238.074219 182.917969 238.140625 179.082031 236.894531 175.4375 C 235.066406 170.101562 231.039062 165.605469 225.640625 163.773438 C 218.804688 161.460938 211.183594 163.75 205.171875 167.242188 C 202.148438 168.996094 199.292969 171.179688 196.953125 173.785156 C 195.214844 175.714844 193.777344 177.875 192.417969 180.085938 C 193.257812 176.351562 193.511719 172.464844 193.21875 168.613281 C 193.308594 168.753906 193.398438 168.882812 193.488281 169.019531 C 194.171875 170 195.023438 171.296875 196.355469 171.308594 C 197.679688 171.320312 198.859375 170.378906 199.851562 169.617188 C 202.644531 167.472656 205.605469 165.566406 208.539062 163.609375 C 211.511719 161.640625 214.460938 159.609375 217.128906 157.246094 C 219.707031 154.957031 221.941406 152.339844 223.773438 149.433594 C 227.507812 143.511719 229.578125 136.664062 230.605469 129.78125 C 231.203125 125.753906 231.46875 121.6875 231.558594 117.621094 C 231.609375 115.601562 231.609375 113.582031 231.609375 111.5625 C 231.609375 110.597656 231.597656 109.632812 231.585938 108.667969 C 231.570312 107.839844 231.738281 106.773438 231.496094 105.972656 C 231.355469 105.515625 230.976562 105.1875 230.464844 105.261719 C 229.792969 105.363281 229.425781 106.085938 229.105469 106.609375 C 228.269531 108.003906 227.253906 109.277344 226.109375 110.445312 C 223.859375 112.746094 221.191406 114.574219 218.511719 116.3125 C 215.804688 118.054688 213.0625 119.742188 210.535156 121.726562 C 207.804688 123.871094 205.300781 126.3125 203.066406 128.964844 C 198.351562 134.582031 194.769531 141.214844 192.824219 148.300781 C 191.007812 154.972656 190.945312 162.582031 195.492188 168.195312 C 195.722656 168.476562 196.128906 168.222656 196.140625 167.929688 C 196.625 161.171875 202.429688 156.660156 206.671875 152.0625 C 210.800781 147.589844 214.359375 142.597656 217.253906 137.25 C 217.597656 136.613281 217.929688 135.964844 218.257812 135.320312 C 217.128906 138.191406 215.792969 140.984375 214.269531 143.664062 C 212.859375 146.167969 211.285156 148.566406 209.554688 150.855469 C 207.878906 153.078125 206.039062 155.175781 204.347656 157.382812 C 202.507812 159.796875 200.878906 162.378906 199.976562 165.300781 C 199.839844 165.769531 200.5625 165.972656 200.714844 165.503906 C 202.390625 160.128906 206.519531 156.074219 209.859375 151.707031 C 213.316406 147.183594 216.1875 142.214844 218.398438 136.96875 C 219.65625 133.996094 220.683594 130.949219 221.511719 127.824219 C 221.636719 127.339844 220.9375 127.164062 220.773438 127.621094 C 218.589844 133.515625 215.628906 139.117188 211.996094 144.261719 C 210.179688 146.828125 208.195312 149.28125 206.050781 151.589844 C 203.8125 154.003906 201.363281 156.214844 199.316406 158.792969 C 197.425781 161.183594 195.925781 163.914062 195.480469 166.9375 C 190.90625 160.574219 192.140625 152.050781 194.628906 145.074219 C 197.132812 138.050781 201.25 131.597656 206.496094 126.324219 C 208.972656 123.835938 211.714844 121.636719 214.652344 119.691406 C 217.332031 117.914062 220.113281 116.277344 222.703125 114.359375 C 225.234375 112.488281 227.558594 110.332031 229.308594 107.699219 C 229.5 107.410156 229.691406 107.105469 229.871094 106.800781 C 230.085938 106.441406 230.542969 105.644531 230.785156 106.390625 C 230.910156 106.800781 230.796875 107.445312 230.808594 107.867188 C 230.820312 108.386719 230.820312 108.921875 230.820312 109.441406 C 230.847656 111.550781 230.847656 113.660156 230.820312 115.769531 C 230.71875 123.632812 230.097656 131.582031 227.671875 139.117188 C 225.449219 146.003906 221.726562 152.238281 216.226562 157.003906 C 213.457031 159.40625 210.40625 161.4375 207.371094 163.457031 C 205.820312 164.472656 204.273438 165.503906 202.746094 166.554688 C 201.402344 167.496094 200.105469 168.511719 198.769531 169.464844 C 198.199219 169.871094 197.589844 170.292969 196.902344 170.457031 C 195.964844 170.699219 195.355469 170.191406 194.78125 169.503906 C 194.148438 168.742188 193.625 167.890625 193.042969 167.089844 C 192.265625 160.371094 189.789062 153.828125 185.738281 148.480469 C 177.519531 137.617188 163.847656 134.300781 151.257812 131.226562 C 143.34375 129.308594 135.328125 127.226562 128.328125 122.90625 C 128.050781 122.730469 127.667969 123.019531 127.769531 123.339844 C 130.589844 132.347656 136.472656 140.058594 143.546875 146.191406 C 147.167969 149.332031 151.15625 152.46875 155.691406 154.144531 C 158.207031 155.074219 160.800781 155.339844 163.46875 155.1875 C 166.238281 155.035156 168.980469 154.601562 171.761719 154.71875 C 177.554688 154.945312 183.210938 156.941406 187.898438 160.34375 C 188.203125 160.558594 188.644531 160.128906 188.417969 159.824219 C 181.203125 150.027344 168.003906 148.328125 157.675781 143.421875 C 156.136719 142.6875 154.589844 141.976562 153.203125 140.945312 C 151.628906 139.777344 150.21875 138.40625 148.707031 137.148438 C 148.402344 136.894531 147.84375 137.222656 148.109375 137.605469 C 152.734375 144.402344 160.773438 147.183594 168.027344 150.195312 C 170.417969 151.183594 172.792969 152.253906 175.039062 153.546875 C 175.472656 153.789062 175.855469 153.128906 175.421875 152.886719 C 168.296875 148.773438 159.871094 147.082031 153.304688 141.976562 C 152.960938 141.707031 152.632812 141.441406 152.3125 141.164062 C 153.34375 141.949219 154.421875 142.675781 155.617188 143.269531 C 158.527344 144.71875 161.5 145.976562 164.558594 147.09375 C 170.074219 149.101562 175.753906 150.84375 180.769531 153.953125 C 182.738281 155.175781 184.570312 156.609375 186.15625 158.285156 C 182.675781 156.191406 178.789062 154.804688 174.761719 154.234375 C 172.234375 153.878906 169.71875 153.890625 167.175781 154.121094 C 164.355469 154.359375 161.5 154.742188 158.691406 154.207031 C 153.75 153.257812 149.480469 150.09375 145.671875 146.980469 C 142.035156 144.007812 138.671875 140.667969 135.8125 136.945312 C 132.828125 133.042969 130.402344 128.726562 128.8125 124.089844 C 140.523438 130.960938 154.511719 131.835938 167.089844 136.5 C 173.171875 138.761719 179.003906 141.960938 183.386719 146.828125 C 187.425781 151.300781 190.121094 156.875 191.492188 162.71875 C 191.746094 163.773438 191.949219 164.839844 192.113281 165.921875 C 192.101562 165.894531 192.078125 165.882812 192.0625 165.859375 C 189.546875 163.175781 186.625 160.867188 183.449219 159.011719 C 180.324219 157.179688 176.84375 155.492188 173.1875 155.289062 C 170.023438 155.109375 166.734375 155.414062 163.660156 156.214844 C 158.132812 157.664062 153.152344 160.878906 149.429688 165.199219 C 145.707031 169.515625 143.242188 174.878906 142.480469 180.53125 C 141.605469 187.035156 143.066406 193.730469 146.484375 199.320312 C 147.359375 200.742188 148.351562 202.101562 149.457031 203.359375 C 150.535156 204.578125 151.742188 205.824219 153.214844 206.558594 C 153.558594 206.726562 153.914062 206.863281 154.269531 206.953125 C 154.117188 207.601562 153.992188 208.25 153.875 208.910156 C 152.160156 219.210938 155.058594 231.140625 163.40625 237.949219 C 173.746094 246.375 189.382812 244.214844 198.886719 235.5625 C 207.878906 227.382812 210.585938 213.890625 206.316406 202.632812 C 204.234375 197.097656 200.535156 192.269531 195.683594 188.890625 C 192.699219 186.804688 189.359375 185.332031 185.824219 184.480469 C 184.363281 184.136719 182.839844 183.71875 181.355469 184.136719 C 179.777344 184.570312 178.523438 185.816406 177.734375 187.210938 C 176.539062 189.308594 176.3125 191.660156 176.3125 194.035156 C 175.957031 193.335938 175.738281 192.5625 175.664062 191.710938 C 175.511719 190.097656 175.777344 188.34375 176.398438 186.832031 C 177.035156 185.269531 178.253906 184.238281 179.792969 183.605469 C 183.5 182.105469 187.605469 183.019531 191.125 184.609375 C 197.460938 187.464844 203.050781 192.28125 206.378906 198.417969 C 208.273438 201.921875 209.417969 205.835938 209.621094 209.824219 C 209.65625 210.652344 209.683594 211.449219 209.53125 212.265625 C 209.417969 212.910156 209.265625 213.574219 209.289062 214.234375 C 209.339844 215.695312 210.484375 216.074219 211.792969 216.125 C 218.296875 216.355469 224.875 214.054688 230.007812 210.089844 C 235.230469 206.050781 238.824219 200.257812 240.183594 193.804688 C 240.222656 193.871094 240.261719 193.933594 240.3125 193.996094 C 240.996094 195.011719 242.078125 196.257812 243.386719 196.410156 C 244.695312 196.5625 245.632812 195.445312 245.9375 194.277344 C 246.410156 192.511719 245.417969 190.871094 244.835938 189.269531 C 244.515625 188.40625 244.261719 187.441406 244.492188 186.527344 Z M 186.5 213.789062 C 186.816406 214.359375 187.25 214.996094 187.234375 215.679688 C 187.210938 216.632812 186.234375 217.128906 185.382812 217.167969 C 183.5 217.230469 181.925781 215.746094 180.007812 216.011719 C 178.367188 216.226562 177.644531 217.804688 176.246094 218.449219 C 175.410156 218.84375 174.507812 218.652344 174.226562 217.6875 C 174.011719 216.953125 174.175781 216.164062 174.378906 215.441406 C 174.761719 214.117188 175.21875 212.492188 174.101562 211.386719 C 173.046875 210.347656 171.40625 210.523438 170.226562 209.722656 C 169.363281 209.140625 169.375 208.171875 170.113281 207.460938 C 170.785156 206.828125 171.75 206.609375 172.550781 206.21875 C 174.011719 205.503906 175.28125 204.351562 176.132812 202.964844 C 176.984375 201.566406 177.1875 199.992188 177.1875 198.378906 C 177.1875 197.707031 177.164062 197.03125 177.136719 196.359375 C 178.394531 197.464844 180.097656 198.253906 180.746094 199.890625 C 181.253906 201.160156 180.949219 202.722656 182.257812 203.5625 C 183.652344 204.464844 185.203125 203.472656 186.691406 203.511719 C 187.859375 203.550781 189.117188 204.4375 189.765625 205.378906 C 190.617188 206.625 189.867188 207.589844 188.746094 208.289062 C 187.808594 208.871094 186.664062 209.367188 186.09375 210.382812 C 185.433594 211.550781 185.902344 212.707031 186.5 213.789062 Z M 234.023438 205.148438 C 229.894531 210.207031 223.949219 213.675781 217.546875 214.90625 C 215.855469 215.222656 214.15625 215.390625 212.441406 215.375 C 211.753906 215.375 210.445312 215.503906 210.140625 214.714844 C 209.898438 214.09375 210.140625 213.253906 210.242188 212.632812 C 210.535156 211.03125 210.40625 209.394531 210.203125 207.78125 C 209.964844 205.9375 209.542969 204.132812 208.945312 202.378906 C 206.722656 195.902344 202.148438 190.476562 196.484375 186.703125 C 193.5625 184.761719 190.257812 183.046875 186.804688 182.371094 C 183.667969 181.75 179.765625 182.003906 177.277344 184.253906 C 175.207031 186.121094 174.597656 189.589844 174.976562 192.230469 C 175.15625 193.449219 175.613281 194.582031 176.363281 195.519531 C 176.386719 196.332031 176.425781 197.132812 176.4375 197.921875 C 176.476562 199.699219 176.296875 201.414062 175.257812 202.925781 C 174.164062 204.503906 172.679688 205.328125 170.964844 206.078125 C 169.757812 206.609375 168.359375 207.742188 168.890625 209.242188 C 169.386719 210.613281 171.027344 210.878906 172.234375 211.246094 C 173.035156 211.488281 173.820312 211.871094 174.011719 212.773438 C 174.203125 213.660156 173.820312 214.589844 173.59375 215.441406 C 173.289062 216.570312 173.160156 218.132812 174.175781 218.984375 C 175.308594 219.925781 176.792969 219.175781 177.734375 218.335938 C 178.394531 217.753906 178.992188 217.015625 179.894531 216.800781 C 180.949219 216.546875 182.027344 217.027344 183.007812 217.382812 C 184.363281 217.890625 185.980469 218.296875 187.222656 217.28125 C 188.328125 216.378906 188.074219 215.046875 187.476562 213.941406 C 186.828125 212.707031 185.980469 211.414062 187.222656 210.230469 C 188.101562 209.394531 189.332031 209.039062 190.207031 208.171875 C 192.128906 206.269531 189.902344 203.855469 188.011719 203.066406 C 186.550781 202.457031 185.304688 203.15625 183.832031 203.195312 C 181.648438 203.246094 182.054688 200.933594 181.445312 199.507812 C 180.78125 197.960938 179.335938 197.132812 178.078125 196.128906 C 177.722656 195.851562 177.417969 195.546875 177.136719 195.214844 C 177.113281 194.414062 177.097656 193.628906 177.136719 192.828125 C 177.277344 189.5 178.726562 184.632812 182.878906 184.734375 C 183.679688 184.75 184.453125 184.9375 185.230469 185.128906 C 186.15625 185.34375 187.082031 185.574219 188 185.867188 C 189.867188 186.476562 191.644531 187.3125 193.332031 188.292969 C 203.890625 194.402344 209.226562 206.953125 207.144531 218.855469 C 206.089844 224.851562 203.242188 230.429688 198.808594 234.621094 C 194.148438 239.042969 187.882812 241.890625 181.46875 242.421875 C 174.925781 242.96875 168.167969 241.152344 163.214844 236.730469 C 159.210938 233.175781 156.609375 228.296875 155.273438 223.152344 C 153.941406 217.980469 153.824219 212.46875 155.007812 207.257812 C 155.019531 207.195312 155.046875 207.117188 155.058594 207.054688 C 155.757812 207.09375 156.441406 206.929688 157.050781 206.445312 C 158.257812 205.503906 159.136719 203.957031 159.886719 202.660156 C 160.738281 201.199219 161.484375 199.6875 162.386719 198.253906 C 163.417969 196.613281 164.660156 195.242188 166.097656 193.945312 C 167.546875 192.625 169.070312 191.390625 170.632812 190.199219 C 171.394531 189.613281 172.15625 189.042969 172.933594 188.484375 C 173.59375 188 174.40625 187.542969 174.902344 186.855469 C 175.726562 185.714844 174.773438 184.46875 173.441406 184.660156 C 172.652344 184.773438 171.890625 185.21875 171.191406 185.574219 C 170.441406 185.953125 169.707031 186.363281 168.992188 186.792969 C 166.210938 188.496094 163.683594 190.640625 161.511719 193.082031 C 158.171875 196.867188 155.730469 201.351562 154.472656 206.203125 C 154.347656 206.167969 154.21875 206.128906 154.105469 206.089844 C 152.53125 205.503906 151.273438 204.195312 150.167969 202.964844 C 149 201.65625 147.945312 200.234375 147.042969 198.722656 C 145.238281 195.710938 143.980469 192.359375 143.394531 188.902344 C 142.394531 183.070312 143.371094 176.984375 146.011719 171.703125 C 148.578125 166.582031 152.644531 162.238281 157.648438 159.457031 C 160.164062 158.058594 162.894531 157.054688 165.730469 156.535156 C 167.277344 156.242188 168.855469 156.113281 170.429688 156.050781 C 172.21875 155.972656 174.0625 155.972656 175.804688 156.417969 C 177.644531 156.902344 179.449219 157.726562 181.136719 158.589844 C 182.828125 159.457031 184.46875 160.445312 186.015625 161.550781 C 187.566406 162.65625 189.027344 163.890625 190.398438 165.210938 C 190.984375 165.78125 191.59375 166.367188 192.113281 167 C 192.191406 167.101562 192.265625 167.191406 192.34375 167.292969 C 192.925781 172.363281 192.535156 177.53125 191.058594 182.421875 C 190.933594 182.84375 191.53125 183.082031 191.757812 182.714844 C 193.640625 179.617188 195.507812 176.476562 198.007812 173.824219 C 200.535156 171.140625 203.609375 168.933594 206.863281 167.203125 C 213.011719 163.941406 220.785156 162.070312 227.328125 165.261719 C 232.753906 167.902344 236.121094 173.328125 237.085938 179.171875 C 237.683594 182.777344 237.566406 186.488281 238.597656 190.019531 C 238.863281 190.960938 239.207031 191.898438 239.664062 192.789062 C 238.800781 197.300781 236.917969 201.605469 234.023438 205.148438 Z M 155.222656 206.304688 C 156.695312 200.640625 159.847656 195.507812 164.101562 191.480469 C 166.480469 189.234375 169.183594 187.351562 172.132812 185.941406 C 172.539062 185.738281 172.96875 185.511719 173.425781 185.421875 C 173.988281 185.308594 174.722656 185.597656 174.34375 186.3125 C 174.113281 186.742188 173.617188 187.023438 173.238281 187.300781 C 172.832031 187.59375 172.4375 187.898438 172.03125 188.191406 C 170.53125 189.296875 169.042969 190.425781 167.621094 191.621094 C 166.121094 192.851562 164.597656 194.136719 163.339844 195.636719 C 162.273438 196.90625 161.421875 198.339844 160.621094 199.789062 C 159.796875 201.277344 159.007812 202.789062 158.019531 204.183594 C 157.585938 204.792969 157.128906 205.46875 156.519531 205.914062 C 156.101562 206.191406 155.667969 206.320312 155.222656 206.304688 Z M 244.375 195.433594 C 243.628906 195.964844 242.777344 195.484375 242.167969 194.960938 C 241.441406 194.351562 240.871094 193.589844 240.402344 192.75 C 240.921875 189.742188 240.972656 186.652344 240.539062 183.628906 C 240.300781 181.992188 239.917969 180.367188 239.382812 178.789062 C 238.789062 177.011719 237.820312 175.269531 237.644531 173.367188 C 237.492188 171.726562 238.023438 169.808594 239.753906 169.238281 C 241.722656 168.589844 242.738281 170.304688 242.789062 172.042969 C 242.839844 173.683594 242.332031 175.371094 243.054688 176.921875 C 243.640625 178.167969 244.820312 178.957031 245.671875 179.984375 C 246.078125 180.480469 246.421875 181.050781 246.398438 181.726562 C 246.371094 182.5 245.875 183.148438 245.40625 183.730469 C 244.453125 184.886719 243.527344 185.953125 243.640625 187.554688 C 243.765625 189.371094 244.910156 190.871094 245.226562 192.625 C 245.40625 193.578125 245.214844 194.820312 244.375 195.433594 Z M 244.375 195.433594 " fill-opacity="1" fill-rule="nonzero"/></g><g fill="#ffffff" fill-opacity="1"><g transform="translate(99.031165, 207.446821)"><g><path d="M 3.023438 6.230469 C 2.644531 5.800781 2.246094 5.207031 2.074219 4.59375 C 1.5 2.5625 2.519531 0.804688 4.5625 0.226562 C 6.714844 -0.378906 8.378906 0.667969 8.976562 2.777344 C 9.136719 3.351562 9.128906 3.988281 9.03125 4.609375 L 9.996094 4.351562 C 10.0625 3.710938 10 2.980469 9.835938 2.40625 C 9.050781 -0.386719 6.871094 -1.621094 4.265625 -0.886719 C 1.621094 -0.140625 0.378906 2.011719 1.152344 4.753906 C 1.320312 5.355469 1.648438 6.054688 2.066406 6.515625 Z M 3.023438 6.230469 "/></g></g></g><g fill="#ffffff" fill-opacity="1"><g transform="translate(101.496562, 216.009342)"><g><path d="M 2.453125 6.195312 L 2.910156 7.34375 L 9.753906 1.214844 L 9.371094 0.246094 L 0.113281 0.285156 L 0.566406 1.433594 L 3.996094 1.34375 L 5.050781 4.003906 Z M 4.988281 1.324219 L 8.3125 1.230469 L 5.796875 3.363281 Z M 4.988281 1.324219 "/></g></g></g><g fill="#ffffff" fill-opacity="1"><g transform="translate(105.139015, 224.929474)"><g><path d="M 5.699219 -0.0742188 L 4.933594 0.320312 C 5.246094 1.191406 5.109375 2.199219 4.328125 3.105469 L 2.605469 5.0625 L 3.148438 6.109375 L 4.957031 4.015625 C 5.878906 2.960938 6.007812 2.0625 5.839844 1.226562 C 6.46875 2.167969 7.574219 2.519531 8.472656 2.054688 C 9.535156 1.503906 9.832031 0.238281 9.1875 -1.003906 L 8.089844 -3.125 L 0.433594 0.839844 L 0.964844 1.863281 L 7.867188 -1.714844 L 8.351562 -0.777344 C 8.742188 -0.0234375 8.574219 0.765625 7.894531 1.117188 C 7.179688 1.488281 6.300781 1.085938 5.84375 0.210938 Z M 5.699219 -0.0742188 "/></g></g></g><g fill="#ffffff" fill-opacity="1"><g transform="translate(109.166965, 232.496239)"><g><path d="M 7.800781 -3.789062 L 0.503906 0.800781 L 2.59375 4.125 L 3.382812 3.628906 L 1.902344 1.277344 L 8.414062 -2.816406 Z M 7.800781 -3.789062 "/></g></g></g><g fill="#ffffff" fill-opacity="1"><g transform="translate(112.710848, 237.99027)"><g><path d="M 7.558594 -4.253906 L 0.550781 0.765625 L 1.222656 1.703125 L 8.226562 -3.316406 Z M 7.558594 -4.253906 "/></g></g></g><g fill="#ffffff" fill-opacity="1"><g transform="translate(115.239844, 241.643172)"><g><path d="M 0.613281 0.71875 L 1.359375 1.597656 L 6.570312 -2.839844 L 4.742188 5.570312 L 5.417969 6.363281 L 11.980469 0.773438 L 11.234375 -0.105469 L 6.054688 4.304688 L 7.886719 -4.035156 L 7.175781 -4.871094 Z M 0.613281 0.71875 "/></g></g></g><g fill="#ffffff" fill-opacity="1"><g transform="translate(122.306835, 249.693455)"><g><path d="M 0.492188 0.128906 C 0.546875 0.316406 0.800781 1.046875 1.582031 1.800781 C 2.71875 2.902344 4.113281 2.878906 5.085938 1.871094 C 5.964844 0.960938 5.789062 -0.234375 5.605469 -1.300781 C 5.410156 -2.394531 5.359375 -3.0625 5.859375 -3.582031 C 6.363281 -4.101562 7.019531 -4.179688 7.648438 -3.570312 C 8.15625 -3.078125 8.328125 -2.316406 8.347656 -2.199219 L 9.054688 -2.925781 C 9.011719 -3.125 8.773438 -3.777344 8.195312 -4.335938 C 7.21875 -5.28125 5.96875 -5.332031 5.089844 -4.421875 C 4.261719 -3.566406 4.347656 -2.515625 4.550781 -1.410156 C 4.703125 -0.589844 4.859375 0.507812 4.289062 1.097656 C 3.804688 1.597656 2.945312 1.808594 2.21875 1.101562 C 1.5 0.40625 1.269531 -0.316406 1.167969 -0.570312 Z M 0.492188 0.128906 "/></g></g></g><g fill="#ffffff" fill-opacity="1"><g transform="translate(127.13629, 254.448594)"><g><path d="M 11.46875 -1.957031 L 6.929688 -0.351562 L 7.386719 -5.164062 L 6.480469 -5.875 L 0.480469 0.378906 L 1.34375 1.054688 L 6.238281 -4.035156 L 5.761719 0.707031 L 6.199219 1.050781 L 10.699219 -0.570312 L 6.96875 5.46875 L 7.832031 6.144531 L 12.421875 -1.210938 Z M 11.46875 -1.957031 "/></g></g></g><g fill="#ffffff" fill-opacity="1"><g transform="translate(136.692429, 261.749224)"><g><path d="M 5.695312 3.457031 L 6.753906 4.097656 L 8.507812 -4.921875 L 7.617188 -5.460938 L 0.261719 0.160156 L 1.316406 0.800781 L 3.996094 -1.339844 L 6.441406 0.140625 Z M 4.777344 -1.957031 L 7.371094 -4.035156 L 6.652344 -0.816406 Z M 4.777344 -1.957031 "/></g></g></g><g fill="#ffffff" fill-opacity="1"><g transform="translate(144.982206, 266.66428)"><g><path d="M 4.5 -3.5 L 4.128906 -2.722656 C 4.902344 -2.214844 5.402344 -1.332031 5.324219 -0.136719 L 5.132812 2.460938 L 6.195312 2.96875 L 6.375 0.210938 C 6.472656 -1.191406 6.035156 -1.984375 5.398438 -2.546875 C 6.464844 -2.175781 7.558594 -2.5625 7.996094 -3.480469 C 8.507812 -4.554688 7.984375 -5.746094 6.71875 -6.347656 L 4.5625 -7.375 L 0.851562 0.40625 L 1.890625 0.902344 L 5.238281 -6.117188 L 6.191406 -5.660156 C 6.953125 -5.296875 7.296875 -4.566406 6.96875 -3.875 C 6.621094 -3.148438 5.675781 -2.9375 4.785156 -3.363281 Z M 4.5 -3.5 "/></g></g></g><g fill="#ffffff" fill-opacity="1"><g transform="translate(152.763501, 270.291685)"><g><path d="M 2.863281 -7.140625 L 5.285156 -6.25 L 2.632812 0.96875 L 3.699219 1.359375 L 6.355469 -5.855469 L 8.777344 -4.964844 L 9.097656 -5.839844 L 3.183594 -8.015625 Z M 2.863281 -7.140625 "/></g></g></g><g fill="#ffffff" fill-opacity="1"><g transform="translate(160.420971, 272.988929)"><g><path d="M 3.316406 -8.015625 L 0.90625 0.265625 L 2.011719 0.585938 L 4.421875 -7.691406 Z M 3.316406 -8.015625 "/></g></g></g><g fill="#ffffff" fill-opacity="1"><g transform="translate(164.666106, 274.299849)"><g><path d="M 0.925781 0.1875 L 2.054688 0.414062 L 3.410156 -6.292969 L 7.171875 1.449219 L 8.191406 1.65625 L 9.902344 -6.792969 L 8.773438 -7.019531 L 7.421875 -0.351562 L 3.710938 -8.046875 L 2.636719 -8.261719 Z M 0.925781 0.1875 "/></g></g></g><g fill="#ffffff" fill-opacity="1"><g transform="translate(175.194845, 276.262262)"><g><path d="M 0.9375 0.0976562 L 4.820312 0.503906 L 4.914062 -0.421875 L 2.152344 -0.710938 L 2.484375 -3.886719 L 4.886719 -3.636719 L 4.976562 -4.507812 L 2.574219 -4.757812 L 2.855469 -7.433594 L 5.617188 -7.148438 L 5.710938 -8.074219 L 1.832031 -8.476562 Z M 0.9375 0.0976562 "/></g></g></g><g fill="#ffffff" fill-opacity="1"><g transform="translate(181.794008, 276.936128)"><g><path d="M 0.839844 -8.605469 L 0.824219 -7.675781 L 5.25 -7.59375 L 0.304688 0.00390625 L 7.078125 0.132812 L 7.097656 -0.785156 L 2.015625 -0.894531 L 7.03125 -8.492188 Z M 0.839844 -8.605469 "/></g></g></g><g fill="#ffffff" fill-opacity="1"><g transform="translate(190.558028, 276.972889)"><g/></g></g><g fill="#ffffff" fill-opacity="1"><g transform="translate(195.208928, 276.673022)"><g><path d="M 0.0429688 -8.78125 L 1.167969 2.140625 L 1.777344 2.078125 L 0.652344 -8.84375 Z M 0.0429688 -8.78125 "/></g></g></g><g fill="#ffffff" fill-opacity="1"><g transform="translate(199.0286, 276.257083)"><g/></g></g><g fill="#ffffff" fill-opacity="1"><g transform="translate(203.708219, 275.62102)"><g><path d="M 0.917969 -0.21875 L 2.039062 -0.488281 L 0.445312 -7.144531 L 7.117188 -1.703125 L 8.128906 -1.945312 L 6.125 -10.328125 L 5.003906 -10.058594 L 6.585938 -3.445312 L -0.0195312 -8.859375 L -1.085938 -8.605469 Z M 0.917969 -0.21875 "/></g></g></g><g fill="#ffffff" fill-opacity="1"><g transform="translate(214.130251, 273.020511)"><g><path d="M 0.410156 -4.359375 L -1.183594 -8.742188 L -2.269531 -8.347656 L -0.679688 -3.976562 C 0.292969 -1.304688 1.816406 -0.453125 4.070312 -1.273438 C 6.289062 -2.082031 6.890625 -3.71875 5.917969 -6.390625 L 4.335938 -10.75 L 3.265625 -10.359375 L 4.851562 -5.988281 C 5.609375 -3.914062 5.242188 -2.6875 3.726562 -2.136719 C 2.214844 -1.589844 1.160156 -2.296875 0.410156 -4.359375 Z M 0.410156 -4.359375 "/></g></g></g><g fill="#ffffff" fill-opacity="1"><g transform="translate(223.394133, 269.530806)"><g><path d="M -3.132812 -7.027344 L -0.808594 -8.144531 L 2.527344 -1.214844 L 3.550781 -1.710938 L 0.21875 -8.640625 L 2.542969 -9.757812 L 2.140625 -10.597656 L -3.539062 -7.863281 Z M -3.132812 -7.027344 "/></g></g></g><g fill="#ffffff" fill-opacity="1"><g transform="translate(230.719466, 265.945613)"><g><path d="M -0.433594 -5.683594 L 0.0078125 -4.945312 C 0.859375 -5.308594 1.875 -5.238281 2.824219 -4.515625 L 4.886719 -2.917969 L 5.898438 -3.527344 L 3.695312 -5.199219 C 2.582031 -6.054688 1.679688 -6.125 0.855469 -5.90625 C 1.757812 -6.59375 2.035156 -7.71875 1.515625 -8.585938 C 0.898438 -9.609375 -0.382812 -9.828125 -1.582031 -9.105469 L -3.628906 -7.875 L 0.808594 -0.484375 L 1.796875 -1.078125 L -2.207031 -7.742188 L -1.300781 -8.285156 C -0.574219 -8.722656 0.222656 -8.605469 0.617188 -7.949219 C 1.03125 -7.257812 0.683594 -6.355469 -0.160156 -5.847656 Z M -0.433594 -5.683594 "/></g></g></g><g fill="#ffffff" fill-opacity="1"><g transform="translate(237.986262, 261.436418)"><g><path d="M -4.183594 -7.597656 L 0.773438 -0.542969 L 1.714844 -1.207031 L -3.242188 -8.257812 Z M -4.183594 -7.597656 "/></g></g></g><g fill="#ffffff" fill-opacity="1"><g transform="translate(241.624268, 258.918195)"><g><path d="M 4.5 -5.261719 C 4.261719 -4.742188 3.875 -4.140625 3.382812 -3.738281 C 1.75 -2.398438 -0.269531 -2.632812 -1.617188 -4.273438 C -3.03125 -6.003906 -2.738281 -7.949219 -1.042969 -9.335938 C -0.578125 -9.714844 0.0078125 -9.964844 0.617188 -10.121094 L -0.0078125 -10.902344 C -0.617188 -10.707031 -1.265625 -10.355469 -1.726562 -9.976562 C -3.972656 -8.140625 -4.230469 -5.652344 -2.515625 -3.554688 C -0.773438 -1.429688 1.695312 -1.152344 3.894531 -2.957031 C 4.378906 -3.351562 4.890625 -3.929688 5.144531 -4.496094 Z M 4.5 -5.261719 "/></g></g></g><g fill="#ffffff" fill-opacity="1"><g transform="translate(248.395792, 253.204827)"><g><path d="M -5.25 -6.902344 L 0.683594 -0.648438 L 1.519531 -1.441406 L -4.414062 -7.695312 Z M -5.25 -6.902344 "/></g></g></g><g fill="#ffffff" fill-opacity="1"><g transform="translate(251.679351, 250.204484)"><g><path d="M 3.398438 -3.539062 C 5.101562 -5.460938 5.015625 -8.1875 3.019531 -9.957031 C 1.128906 -11.632812 -1.578125 -11.507812 -3.371094 -9.484375 C -5.078125 -7.5625 -5 -4.84375 -2.996094 -3.066406 C -1.105469 -1.390625 1.601562 -1.511719 3.398438 -3.539062 Z M -2.273438 -3.964844 C -3.8125 -5.328125 -3.976562 -7.402344 -2.648438 -8.898438 C -1.386719 -10.320312 0.699219 -10.476562 2.296875 -9.058594 C 3.824219 -7.703125 3.988281 -5.609375 2.671875 -4.125 C 1.402344 -2.691406 -0.683594 -2.554688 -2.273438 -3.964844 Z M -2.273438 -3.964844 "/></g></g></g><g fill="#ffffff" fill-opacity="1"><g transform="translate(259.041283, 241.748755)"><g><path d="M 0.535156 -0.777344 L 1.191406 -1.726562 L -4.441406 -5.613281 L 4.15625 -6.019531 L 4.746094 -6.878906 L -2.347656 -11.773438 L -3 -10.828125 L 2.597656 -6.960938 L -5.933594 -6.578125 L -6.558594 -5.675781 Z M 0.535156 -0.777344 "/></g></g></g><g fill="#ffffff" fill-opacity="1"><g transform="translate(264.958319, 232.844737)"><g><path d="M -7.007812 -5.105469 L 0.46875 -0.820312 L 1.042969 -1.820312 L -6.4375 -6.105469 Z M -7.007812 -5.105469 "/></g></g></g><g fill="#ffffff" fill-opacity="1"><g transform="translate(267.142235, 229.017156)"><g><path d="M -0.0273438 -0.507812 C 0.132812 -0.613281 0.753906 -1.082031 1.234375 -2.054688 C 1.933594 -3.472656 1.488281 -4.792969 0.230469 -5.414062 C -0.902344 -5.976562 -1.984375 -5.441406 -2.945312 -4.941406 C -3.929688 -4.421875 -4.550781 -4.171875 -5.199219 -4.492188 C -5.84375 -4.8125 -6.121094 -5.410156 -5.734375 -6.195312 C -5.417969 -6.832031 -4.742188 -7.222656 -4.636719 -7.28125 L -5.546875 -7.730469 C -5.71875 -7.628906 -6.269531 -7.207031 -6.628906 -6.484375 C -7.230469 -5.265625 -6.898438 -4.0625 -5.765625 -3.5 C -4.695312 -2.972656 -3.722656 -3.375 -2.730469 -3.90625 C -1.992188 -4.300781 -0.996094 -4.78125 -0.261719 -4.417969 C 0.359375 -4.113281 0.824219 -3.355469 0.375 -2.449219 C -0.0703125 -1.550781 -0.6875 -1.113281 -0.898438 -0.941406 Z M -0.0273438 -0.507812 "/></g></g></g><g fill="#ffffff" fill-opacity="1"><g transform="translate(270.1056, 222.966062)"><g><path d="M -7.070312 -3.039062 L -6.117188 -5.4375 L 1.03125 -2.605469 L 1.453125 -3.664062 L -5.699219 -6.496094 L -4.746094 -8.898438 L -5.613281 -9.242188 L -7.933594 -3.382812 Z M -7.070312 -3.039062 "/></g></g></g><g fill="#ffffff" fill-opacity="1"><g transform="translate(273.079392, 215.358762)"><g><path d="M 1.835938 -6.40625 L 2.175781 -7.59375 L -6.988281 -6.910156 L -7.273438 -5.910156 L 0.0859375 -0.292969 L 0.425781 -1.480469 L -2.347656 -3.503906 L -1.558594 -6.25 Z M -3.144531 -4.09375 L -5.835938 -6.046875 L -2.542969 -6.199219 Z M -3.144531 -4.09375 "/></g></g></g></svg>